<svg xmlns="http://www.w3.org/2000/svg" width="43.4" height="64.4"><path d="M420 1439.5a4.5 4.5 0 0 1 4.5-4.5h29a4.5 4.5 0 0 1 4.5 4.5v50a4.5 4.5 0 0 1-4.5 4.5h-29a4.5 4.5 0 0 1-4.5-4.5z" fill="none" stroke-dasharray="0" stroke="#f27023" stroke-miterlimit="50" stroke-width="3" clip-path="url(&amp;quot;#a&amp;quot;)" transform="translate(-417.3 -1432.3)"/><path d="M12.7 9.2a1.5 1.5 0 0 1 1.5-1.5h15a1.5 1.5 0 1 1 0 3h-15a1.5 1.5 0 0 1-1.5-1.5z" fill="#f27023"/><path d="M17.7 52.2a4.5 4.5 0 1 1 9 0 4.5 4.5 0 0 1-9 0z" fill="none" stroke-dasharray="0" stroke="#f27023" stroke-miterlimit="50" stroke-width="1.8"/></svg>