<svg width="65" height="66" viewBox="0 0 65 66" xmlns="http://www.w3.org/2000/svg"><title>Combined Shape</title><path d="M26.292 62.203c-.742 0-1.334-.578-1.334-1.264v-4.984c0-1.149-.82-1.74-2.279-2.369a21.728 21.728 0 0 1-4.462-2.604c-.807-.611-1.934-.795-2.802-.302l-4.245 2.39c-.717.402-1.535.18-1.903-.44L3.116 42.247a1.184 1.184 0 0 1-.128-.935 1.26 1.26 0 0 1 .61-.769l-.734-1.307-1.201.899.663.886 2.488-1.669-.563-.942-1.288.77.734 1.308.292-.164-.733-1.309-1.218.876.645.897 2.507-1.643-.56-.943-1.29.767.735 1.307 3.368-1.894c.867-.491 1.001-.576 1.282-.91.5-.591.52-.981.4-1.81-.13-.866-.19-1.762-.19-2.888 0-1.26.059-2.156.182-2.97.126-.875.107-1.257-.37-1.84-.286-.353-.418-.436-1.339-.956l-3.33-1.875-.736 1.308 1.341.672.492-.982-2.632-1.435-.559.944 1.292.763.735-1.307-.31-.175-.736 1.307 1.34.676.493-.98-2.6-1.49-.595.924 1.26.813.736-1.307c-.624-.35-.833-1.11-.482-1.702l6.151-10.386a1.358 1.358 0 0 1 1.166-.646c.238 0 .475.062.681.178l4.318 2.43c.893.475 1.993.287 2.785-.313a21.5 21.5 0 0 1 4.367-2.562c1.555-.67 2.373-1.262 2.373-2.41V4.465c0-.686.592-1.263 1.335-1.263h12.303c.743 0 1.334.576 1.334 1.263V9.45c0 1.15.817 1.738 2.28 2.368a21.83 21.83 0 0 1 4.463 2.605c.789.598 1.884.785 2.744.334l4.338-2.44c.673-.373 1.51-.145 1.868.458l6.15 10.384c.35.592.14 1.352-.484 1.703l-2.834 1.596.736 1.307 1.225-.866-.637-.901-2.514 1.633.561.943 1.29-.767-.737-1.307-.864.487c-.943.533-1.079.619-1.369.974-.48.588-.498.973-.382 1.783.133.906.188 1.786.188 2.888 0 1.255-.057 2.148-.179 2.957l1.483.234-1.485-.212c-.051.357-.064.478-.051.709.024.436.18.837.473 1.176.283.326.428.417 1.287.903l.9.506.735-1.307-1.342-.669-.49.983 2.632 1.436.561-.943-1.288-.767-.736 1.307 2.361 1.329.736-1.307-1.34-.674-.494.982 2.632 1.436.558-.945-1.291-.763-.739 1.306.428.242c.296.166.507.436.596.76.089.321.045.646-.126.936L55.621 52.63a1.36 1.36 0 0 1-1.167.647c-.238 0-.475-.062-.681-.178l-4.3-2.42c-.881-.496-1.988-.312-2.799.3a21.469 21.469 0 0 1-4.333 2.547c-1.596.69-2.413 1.282-2.413 2.429v4.984c0 .687-.59 1.264-1.333 1.264H26.292zm16.636-1.265v-4.983c0 .342-.108.576-.245.743.13-.08.378-.214.693-.35a24.901 24.901 0 0 0 5.107-2.976c-.067.05-.21.075-.481-.078l4.3 2.42a4.398 4.398 0 0 0 2.152.563 4.36 4.36 0 0 0 3.748-2.117l6.153-10.384c.585-.99.742-2.154.437-3.26a4.239 4.239 0 0 0-2.017-2.578l-.423-.24-1.281-.724-.749 1.267-.558.945 1.291.763 1.34.674.494-.982.643-1.279-1.248-.702-2.36-1.328-1.276-.718-.75 1.257-.56.943 1.288.767 1.343.669.49-.983.635-1.277-1.243-.699-.897-.504a13.354 13.354 0 0 1-.52-.301c.178.221.27.457.281.672.003.049.038-.238.038-.238l-1.496-.107 1.483.223c.145-.968.212-2.007.212-3.263 0-1.38-.064-2.403-.208-3.38-.041.053-.126.285-.273.466.053.006.17-.062.518-.258l.863-.486 1.338-.754-.786-1.32-.56-.943-1.29.767-1.225.865.637.901.781 1.106 1.18-.664 2.834-1.596c2.082-1.172 2.804-3.797 1.594-5.844l-6.152-10.388c-1.186-1.997-3.807-2.71-5.91-1.548l-4.308 2.425c.31-.163.43-.142.5-.09a24.484 24.484 0 0 0-4.96-2.91c-.454-.198-.706-.334-.848-.436.145.186.253.422.253.765V4.466c0-2.36-1.951-4.263-4.334-4.263H26.293c-2.383 0-4.335 1.903-4.335 4.263v4.985c0-.342.109-.577.246-.744a5.939 5.939 0 0 1-.71.357 24.795 24.795 0 0 0-5.088 2.968c.07-.052.192-.073.467.073l-4.287-2.413a4.398 4.398 0 0 0-2.152-.563 4.357 4.357 0 0 0-3.747 2.118L.536 21.632c-1.213 2.047-.491 4.674 1.591 5.846l1.23.692.766-1.186.596-.923-1.26-.814-1.34-.675-.494.98-.645 1.28 1.25.703.31.175 1.28.72.747-1.264.558-.945-1.291-.763-1.341-.672-.492.982-.64 1.278 1.245.7 3.328 1.874c.335.189.448.254.543.315-.203-.259-.288-.493-.299-.707-.175 1.1-.242 2.144-.242 3.405 0 1.408.068 2.452.221 3.466a1.41 1.41 0 0 1 .275-.561c-.042-.01-.149.052-.463.23L2.605 37.66l-1.34.753.785 1.32.56.944 1.29-.766 1.218-.876-.644-.896-.783-1.088-1.168.655-.293.164-1.346.754.792 1.324.563.942 1.288-.77 1.2-.898-.662-.886-.79-1.054-1.147.645a4.256 4.256 0 0 0-2.032 2.589 4.184 4.184 0 0 0 .439 3.259L6.686 54.16c1.197 2.02 3.813 2.728 5.954 1.524l4.252-2.393c-.28.16-.412.139-.486.083a24.315 24.315 0 0 0 4.944 2.903c.467.204.72.34.86.442a1.186 1.186 0 0 1-.252-.764v4.984c0 2.36 1.952 4.264 4.334 4.264h12.303c2.384 0 4.335-1.904 4.333-4.265zM51 33c0-9.941-8.059-18-18-18s-18 8.059-18 18 8.059 18 18 18 18-8.059 18-18zm-38 0c0-11.046 8.954-20 20-20s20 8.954 20 20-8.954 20-20 20-20-8.954-20-20zm7.434-.552a.8.8 0 0 0 0 1.132l6 5.986a.8.8 0 1 0 1.131-1.132l-6-5.987.001 1.131 6-6.013a.8.8 0 0 0-1.132-1.13l-6 6.013zm24 1.13v-1.131l-6 5.987a.8.8 0 1 0 1.131 1.132l6-5.986a.8.8 0 0 0 .001-1.132l-6-6.013a.8.8 0 0 0-1.132 1.13l6 6.013zm-7.685-8.297a.8.8 0 1 0-1.498-.562l-6 16a.8.8 0 1 0 1.498.562l6-16z" fill="#F27023" fill-rule="evenodd"/></svg>