<svg width="75" height="53" viewBox="0 0 75 53" xmlns="http://www.w3.org/2000/svg" xmlns:xlink="http://www.w3.org/1999/xlink"><title>Group 6</title><defs><rect id="a" x="35" y="24" width="38" height="27" rx="2"/><mask id="c" x="-2" y="-2" width="42" height="31"><path fill="#fff" d="M33 22h42v31H33z"/><use xlink:href="#a"/></mask><rect id="b" x="11" y="24" width="16" height="27" rx="2"/><mask id="d" x="-2" y="-2" width="20" height="31"><path fill="#fff" d="M9 22h20v31H9z"/><use xlink:href="#b"/></mask></defs><g fill="none" fill-rule="evenodd"><path d="M3 38.509A4.499 4.499 0 0 0 7.506 43h53.988A4.492 4.492 0 0 0 66 38.509V7.49A4.499 4.499 0 0 0 61.494 3H7.506A4.492 4.492 0 0 0 3 7.491V38.51zM0 7.49C0 3.35 3.355 0 7.506 0h53.988C65.638 0 69 3.352 69 7.491V38.51c0 4.14-3.355 7.49-7.506 7.49H7.506C3.362 46 0 42.648 0 38.509V7.49z" fill="#F27023"/><use fill="#FFF" xlink:href="#a"/><use stroke="#F27023" mask="url(#c)" stroke-width="4" xlink:href="#a"/><use fill="#FFF" xlink:href="#b"/><use stroke="#F27023" mask="url(#d)" stroke-width="4" xlink:href="#b"/><rect fill="#F27023" x="15" y="27" width="8" height="2" rx="1"/><circle fill="#F27023" cx="19" cy="47" r="1"/><rect fill="#F27023" transform="rotate(-90 38 37)" x="34" y="36" width="8" height="2" rx="1"/><circle fill="#F27023" cx="69" cy="38" r="1"/></g></svg>