<svg width="51" height="56" viewBox="0 0 51 56" xmlns="http://www.w3.org/2000/svg"><title>282705</title><path d="M50.156 15.676a7.733 7.733 0 0 0-.45-1.081c-.64-1.276-1.615-2.408-2.76-3.066L29.05 1.263c-1.95-1.118-5.155-1.118-7.105 0L4.049 11.529c-1.146.658-2.12 1.79-2.76 3.066a7.765 7.765 0 0 0-.45 1.08c-.215.655-.342 1.323-.342 1.968v20.534c0 2.324 1.527 4.952 3.552 6.113l17.896 10.267c.975.56 2.237.867 3.552.867 1.316 0 2.578-.308 3.552-.867L46.945 44.29c2.025-1.162 3.552-3.79 3.552-6.113V17.643c.001-.646-.127-1.313-.34-1.967zM23.596 2.64c.46-.263 1.173-.421 1.904-.421.731 0 1.443.158 1.904.42l19.3 11.024-19.3 11.025c-.979.56-2.83.56-3.807 0l-19.3-11.025 19.3-11.023zm25.04 36.387c0 1.117-.924 2.703-1.903 3.261L27.403 53.33c-.92.526-2.885.526-3.806 0L4.267 42.288c-.979-.558-1.904-2.144-1.904-3.261v-4.732l19.853 11.34c.92.525 2.101.788 3.284.788 1.183 0 2.364-.263 3.284-.789l19.853-11.339v4.732zm0-6.625l-.54.309-20.14 11.504c-1.33.76-3.58.76-4.912 0L2.904 32.71l-.54-.31v-6.68l19.852 11.34c.92.526 2.101.79 3.284.79 1.183 0 2.364-.264 3.284-.79l19.853-11.34v6.682zm0-8.574L27.957 35.64c-1.33.76-3.58.761-4.912 0L2.904 24.136l-.54-.309v-6.85l19.299 11.024c1.093.626 2.465.937 3.836.937s2.744-.312 3.837-.937l19.3-11.024v6.85z" fill="#F27023" fill-rule="evenodd"/></svg>