<svg xmlns="http://www.w3.org/2000/svg" width="67" height="44"><defs><linearGradient id="a" gradientUnits="userSpaceOnUse" x1="1009" y1="1849" x2="993" y2="1849"><stop stop-color="#ff6200" offset="0"/><stop stop-color="#ff7d00" offset="1"/></linearGradient><linearGradient id="b" gradientUnits="userSpaceOnUse" x1="993" y1="1848.5" x2="974" y2="1848.5"><stop stop-color="#ff6200" offset="0"/><stop stop-color="#ff7d00" offset="1"/></linearGradient><linearGradient id="c" gradientUnits="userSpaceOnUse" x1="1028" y1="1848.5" x2="1009" y2="1848.5"><stop stop-color="#ff6200" offset="0"/><stop stop-color="#ff7d00" offset="1"/></linearGradient><linearGradient id="d" gradientUnits="userSpaceOnUse" x1="1035" y1="1849" x2="1025" y2="1849"><stop stop-color="#ff6200" offset="0"/><stop stop-color="#ff7d00" offset="1"/></linearGradient><linearGradient id="e" gradientUnits="userSpaceOnUse" x1="978" y1="1849" x2="968" y2="1849"><stop stop-color="#ff6200" offset="0"/><stop stop-color="#ff7d00" offset="1"/></linearGradient><linearGradient id="f" gradientUnits="userSpaceOnUse" x1="1034.004" y1="1862.504" x2="1008.004" y2="1862.504"><stop stop-color="#ff6200" offset="0"/><stop stop-color="#ff7d00" offset="1"/></linearGradient><linearGradient id="g" gradientUnits="userSpaceOnUse" x1="994" y1="1862.503" x2="968" y2="1862.503"><stop stop-color="#ff6200" offset="0"/><stop stop-color="#ff7d00" offset="1"/></linearGradient><linearGradient id="h" gradientUnits="userSpaceOnUse" x1="1011.997" y1="1873.5" x2="992.997" y2="1873.5"><stop stop-color="#ff6200" offset="0"/><stop stop-color="#ff7d00" offset="1"/></linearGradient></defs><path d="M994.6 1857.07c-.88 0-1.6-.72-1.6-1.61v-12.85c0-.89.72-1.61 1.6-1.61h12.76c.88 0 1.59.72 1.59 1.61v12.85c0 .89-.71 1.61-1.59 1.61zm11.16-3.21v-9.65h-9.57v9.65z" fill="url(#a)" transform="translate(-968 -1841)"/><path d="M974 1847h19.14v3.21H974z" fill="url(#b)" transform="translate(-968 -1841)"/><path d="M1009 1847h19.14v3.21H1009V1847z" fill="url(#c)" transform="translate(-968 -1841)"/><path d="M1025 1848.82c0-2.66 2.14-4.82 4.79-4.82 2.63 0 4.78 2.16 4.78 4.82s-2.14 4.82-4.78 4.82c-2.65 0-4.79-2.16-4.79-4.82zm3.19 0c0 .88.72 1.61 1.6 1.61.87 0 1.59-.73 1.59-1.61 0-.88-.72-1.61-1.59-1.61-.88 0-1.6.73-1.6 1.61z" fill="url(#d)" transform="translate(-968 -1841)"/><path d="M968 1848.82c0-2.66 2.15-4.82 4.79-4.82 2.63 0 4.78 2.16 4.78 4.82s-2.15 4.82-4.78 4.82c-2.64 0-4.79-2.16-4.79-4.82zm3.19 0c0 .88.72 1.61 1.6 1.61.87 0 1.59-.73 1.59-1.61 0-.88-.72-1.61-1.59-1.61-.88 0-1.6.73-1.6 1.61z" fill="url(#e)" transform="translate(-968 -1841)"/><path d="M1032.88 1878.18c-.88 0-1.6-.72-1.6-1.61 0-13.04-9.24-24.14-21.96-26.38-.86-.15-1.45-.98-1.29-1.86.15-.87.96-1.46 1.84-1.3 14.26 2.51 24.6 14.94 24.6 29.54 0 .89-.71 1.61-1.59 1.61z" fill="url(#f)" transform="translate(-968 -1841)"/><path d="M969.6 1878.18c-.88 0-1.6-.72-1.6-1.61 0-14.6 10.35-27.04 24.6-29.54.89-.16 1.7.42 1.85 1.29.15.88-.43 1.71-1.29 1.87-12.73 2.24-21.97 13.34-21.97 26.38 0 .89-.71 1.61-1.59 1.61z" fill="url(#g)" transform="translate(-968 -1841)"/><path d="M1008.95 1884.38l-7.38-3.06-7.37 3.06c-.59.24-1.28.11-1.73-.34-.46-.47-.6-1.15-.35-1.76l7.98-19.38c.49-1.2 2.46-1.2 2.95 0l7.82 19.01c.21.27.34.61.34 1 0 .89-.72 1.6-1.63 1.61-.02-.01-.03-.01-.03-.01-.2 0-.42-.05-.6-.13zm-6.77-6.29l4.42 1.84-5.03-12.23-5.04 12.23 4.43-1.83c.2-.08.4-.13.61-.13.21 0 .41.05.61.12z" fill="url(#h)" transform="translate(-968 -1841)"/></svg>