<svg xmlns="http://www.w3.org/2000/svg" width="78" height="78" viewBox="0 0 78 78"><title>Group 36</title><path d="M11 67l8-12" fill="none" stroke-dasharray="0" stroke-linejoin="round" stroke-linecap="round" stroke="#f27023" stroke-miterlimit="50" stroke-width="4"/><path d="M19 55l5 7" fill="none" stroke-dasharray="0" stroke-linejoin="round" stroke-linecap="round" stroke="#d3d3d3" stroke-miterlimit="50" stroke-width="4"/><path d="M25 63l12-17" fill="none" stroke-dasharray="0" stroke-linejoin="round" stroke-linecap="round" stroke="#f27023" stroke-miterlimit="50" stroke-width="4"/><path d="M37 46l9 12" fill="none" stroke-dasharray="0" stroke-linejoin="round" stroke-linecap="round" stroke="#d3d3d3" stroke-miterlimit="50" stroke-width="4"/><path d="M46 58.28L75.29 15" fill="none" stroke-dasharray="0" stroke-linejoin="round" stroke-linecap="round" stroke="#f27023" stroke-miterlimit="50" stroke-width="4"/><path d="M67 17.74L74.83 14v8.38" fill="none" stroke-dasharray="0" stroke-linejoin="round" stroke-linecap="round" stroke="#f27023" stroke-miterlimit="50" stroke-width="5"/><path d="M77.85 70.51H7.33V0H3.32v5.83H0v4.04h3.32v10.17H0v4.02h3.32v10.17H0v4.04h3.32v10.18H0v4.04h3.32v10.18H0v4.04h3.32v7.82h7.82v3.32h4.04v-3.32h10.18v3.32h4.04v-3.32h10.17v3.32h4.04v-3.32h10.18v3.32h4.01v-3.32h10.18v3.32h4.04v-3.32h5.83z" fill="#d3d3d3"/></svg>