<svg xmlns="http://www.w3.org/2000/svg" width="96" height="65"><defs><linearGradient id="a" gradientUnits="userSpaceOnUse" x1="399" y1="1897.5" x2="304" y2="1897.5"><stop stop-color="#ff6200" offset="0"/><stop stop-color="#ff7d00" offset="1"/></linearGradient></defs><path d="M367.22 1883.95c-6.11-3.68-13.2 4.29-15.71 7.51-2.71-3.4-9.55-10.74-15.46-7.19-7.57 4.56-26.25 22.45-32.05 9.44 6.31 16.92 18.17 23.02 47.94 6.44 29.38 16.1 41.07 10.04 47.34-6.77-5.81 13.02-24.49-4.88-32.06-9.43z" fill="url(#a)" transform="translate(-304 -1845)"/><path d="M66.7 0c-5.6 0-8.64.87-11.32 1.65-2.21.64-4.12 1.19-7.14 1.19-3.02 0-4.93-.55-7.14-1.19C38.42.87 35.38 0 29.78 0 19.67 0 14.05 2.57 13.82 2.68c-.3.13-.5.43-.52.76l-.3 4.4c-.02.38.21.75.58.9.38.15.83.46.89.59.05.15.15.64.29 1.33.46 2.24 1.31 6.41 2.35 9.19 1.2 3.21 2.48 4.59 5.46 5.89 1.78.78 4.53 1.26 7.18 1.26 2.58 0 4.99-.45 6.96-1.31 5.13-2.25 6.36-5.65 7.92-9.95.22-.64.42-1.22.6-1.73 1.09-3.17 1.29-3.58 3.01-3.58 1.72 0 1.92.41 3.01 3.58.18.52.37 1.09.6 1.72 1.56 4.31 2.78 7.71 7.91 9.96 1.98.86 4.39 1.31 6.97 1.31 2.65 0 5.4-.48 7.18-1.26 2.98-1.3 4.25-2.68 5.46-5.89 1.03-2.76 1.88-6.92 2.34-9.15.15-.71.24-1.21.29-1.36.07-.14.52-.45.9-.6.37-.15.6-.52.58-.9l-.3-4.4a.886.886 0 0 0-.52-.76C82.42 2.57 76.81 0 66.7 0zM29.43 23.35c-4.05 0-6.54-.92-8.06-2.99-1.47-2.01-3.25-10.58-2.09-13.23 1.12-2.53 6.26-3.44 10.71-3.44 4.68 0 10.23.98 11.36 3.13 1.17 2.2.46 6.47-1.89 11.43-1.61 3.39-4.99 5.1-10.03 5.1zm37.62 0c-5.04 0-8.42-1.71-10.03-5.1-2.35-4.96-3.06-9.23-1.9-11.43 1.14-2.15 6.69-3.12 11.37-3.12 4.44 0 9.59.9 10.71 3.43 1.16 2.65-.62 11.22-2.09 13.23-1.52 2.07-4.01 2.99-8.06 2.99z" fill="#d3d3d3"/></svg>