<svg xmlns="http://www.w3.org/2000/svg" width="52" height="84"><defs><linearGradient id="a" gradientUnits="userSpaceOnUse" x1="721" y1="1881" x2="715" y2="1881"><stop stop-color="#ff6200" offset="0"/><stop stop-color="#ff7d00" offset="1"/></linearGradient><linearGradient id="b" gradientUnits="userSpaceOnUse" x1="721" y1="1895" x2="715" y2="1895"><stop stop-color="#ff6200" offset="0"/><stop stop-color="#ff7d00" offset="1"/></linearGradient><linearGradient id="c" gradientUnits="userSpaceOnUse" x1="721" y1="1908" x2="715" y2="1908"><stop stop-color="#ff6200" offset="0"/><stop stop-color="#ff7d00" offset="1"/></linearGradient><linearGradient id="d" gradientUnits="userSpaceOnUse" x1="721" y1="1867" x2="715" y2="1867"><stop stop-color="#ff6200" offset="0"/><stop stop-color="#ff7d00" offset="1"/></linearGradient><linearGradient id="e" gradientUnits="userSpaceOnUse" x1="730" y1="1859" x2="724" y2="1859"><stop stop-color="#ff6200" offset="0"/><stop stop-color="#ff7d00" offset="1"/></linearGradient><linearGradient id="f" gradientUnits="userSpaceOnUse" x1="712" y1="1859" x2="706" y2="1859"><stop stop-color="#ff6200" offset="0"/><stop stop-color="#ff7d00" offset="1"/></linearGradient><linearGradient id="g" gradientUnits="userSpaceOnUse" x1="727.003" y1="1837" x2="709.003" y2="1837"><stop stop-color="#ff6200" offset="0"/><stop stop-color="#ff7d00" offset="1"/></linearGradient></defs><path d="M47.38 35.6L37 45.46v31.5c0 1.21.98 2.19 2.18 2.19 1.21 0 2.19-.98 2.19-2.19V47.34l9.02-8.58c.87-.83.91-2.21.08-3.08-.83-.87-2.21-.91-3.09-.08zM.6 35.68c-.83.87-.79 2.26.08 3.09l9.02 8.57v29.62c0 1.21.98 2.19 2.18 2.19 1.21 0 2.19-.98 2.19-2.19v-31.5L3.69 35.6c-.88-.83-2.26-.79-3.09.08z" fill="#d3d3d3"/><path d="M715 1881a3 3 0 1 1 6 0 3 3 0 0 1-6 0z" fill="url(#a)" transform="translate(-693 -1827)"/><path d="M715 1895a3 3 0 1 1 6 0 3 3 0 0 1-6 0z" fill="url(#b)" transform="translate(-693 -1827)"/><path d="M715 1908a3 3 0 1 1 6 0 3 3 0 0 1-6 0z" fill="url(#c)" transform="translate(-693 -1827)"/><path d="M715 1867a3 3 0 1 1 6 0 3 3 0 0 1-6 0z" fill="url(#d)" transform="translate(-693 -1827)"/><path d="M724 1859a3 3 0 1 1 6 0 3 3 0 0 1-6 0z" fill="url(#e)" transform="translate(-693 -1827)"/><path d="M706 1859a3 3 0 1 1 6 0 3 3 0 0 1-6 0z" fill="url(#f)" transform="translate(-693 -1827)"/><path d="M726.79 1839.6c.85-.85.85-2.23 0-3.08a2.19 2.19 0 0 0-3.09 0l-3.3 3.3v-10.64a2.185 2.185 0 0 0-4.37 0v10.64l-3.3-3.3a2.19 2.19 0 0 0-3.09 0c-.85.85-.85 2.23 0 3.08l8.58 8.58z" fill="url(#g)" transform="translate(-693 -1827)"/></svg>