<svg xmlns="http://www.w3.org/2000/svg" width="67" height="65.064"><defs><linearGradient id="a" gradientUnits="userSpaceOnUse" x1="1122.224" y1="1878.771" x2="1056.224" y2="1878.771"><stop stop-color="#ff6200" offset="0"/><stop stop-color="#ff7d00" offset="1"/></linearGradient></defs><path d="M1052.224 1885.626l42.73-35.855 19.882 6.815 3.258 20.763-42.73 35.854z" fill="url(#a)" transform="translate(-1052 -1848.936)"/><path d="M40.099 21.693A6.5 6.5 0 1 1 52.9 19.435 6.5 6.5 0 0 1 40.1 21.693z" fill="none" stroke-dasharray="0" stroke="#fff" stroke-miterlimit="50" stroke-width="4"/><path d="M15.038 34.998a2.5 2.5 0 1 1 4.924-.868 2.5 2.5 0 0 1-4.924.868zM31.038 43.998a2.5 2.5 0 1 1 4.924-.868 2.5 2.5 0 0 1-4.924.868z" fill="#fff"/><path d="M24.593 47.274l.814-18.42" fill="none" stroke-dasharray="0" stroke-linejoin="round" stroke-linecap="round" stroke="#fff" stroke-miterlimit="50" stroke-width="4"/><path d="M40.761 18.422c-2.78 1.506-19.058 1.33-20.214-16.744" fill="none" stroke-dasharray="0" stroke="#fff" stroke-miterlimit="50" stroke-width="4"/></svg>