<svg xmlns="http://www.w3.org/2000/svg" width="76.4" height="76.4" viewBox="0 0 76.40000009536743 76.40000009536743"><title>Group 22</title><path d="M2.2 38.2c0-19.882 16.118-36 36-36s36 16.118 36 36-16.118 36-36 36-36-16.118-36-36z" fill="none" stroke-dasharray="0" stroke="#d3d3d3" stroke-miterlimit="50" stroke-width="4.4"/><path d="M35.2 9.2a3 3 0 1 1 6 0 3 3 0 0 1-6 0zM35.2 65.2a3 3 0 1 1 6 0 3 3 0 0 1-6 0zM60.2 38.2a3 3 0 1 1 6 0 3 3 0 0 1-6 0zM12.2 38.2a3 3 0 1 1 6 0 3 3 0 0 1-6 0z" fill="#f27023"/><path d="M47.17 50.68l-9.97-13.3V25.2" fill="none" stroke-dasharray="0" stroke-linejoin="round" stroke-linecap="round" stroke="#f27023" stroke-miterlimit="50" stroke-width="4.4"/></svg>