<?xml version="1.0" encoding="UTF-8"?>
<svg width="87px" height="87px" viewBox="0 0 87 87" version="1.1" xmlns="http://www.w3.org/2000/svg" xmlns:xlink="http://www.w3.org/1999/xlink">
    <!-- Generator: sketchtool 46.2 (44496) - http://www.bohemiancoding.com/sketch -->
    <title>2F6AF6ED-72E4-457D-9B22-47C8F93D44B8</title>
    <desc>Created with sketchtool.</desc>
    <defs></defs>
    <g id="design" stroke="none" stroke-width="1" fill="none" fill-rule="evenodd">
        <g id="HOW-IT-WORKS" transform="translate(-470.000000, -835.000000)">
            <g id="Group" transform="translate(470.000000, 835.000000)">
                <path d="M34.0337624,55.7946648 L29.7469517,60.0814755 L34.3431458,64.6776695 L14.8977093,84.123106 C11.5782528,87.4425625 6.19635047,87.4425625 2.87689399,84.123106 C-0.442562492,80.8036495 -0.442562492,75.4217472 2.87689399,72.1022907 L22.3223305,52.6568542 L26.9185245,57.2530483 L31.2053352,52.9662376 C20.2922067,40.5941698 20.7488879,21.7033849 32.5753788,9.87689399 C44.876894,-2.4246212 64.8215908,-2.4246212 77.123106,9.87689399 C89.4246212,22.1784092 89.4246212,42.123106 77.123106,54.4246212 C65.2966151,66.2511121 46.4058302,66.7077933 34.0337624,55.7946648 Z M4.99821433,74.2236111 C2.85033073,76.3714947 2.85033073,79.8539021 4.99821433,82.0017857 C7.14609794,84.1496693 10.6285053,84.1496693 12.7763889,82.0017857 L30.1005051,64.6776695 L22.3223305,56.8994949 L4.99821433,74.2236111 Z M34.6966991,52.3033009 C45.8266415,63.4332432 63.8718434,63.4332432 75.0017857,52.3033009 C86.131728,41.1733585 86.131728,23.1281566 75.0017857,11.9982143 C63.8718434,0.868272017 45.8266415,0.868272017 34.6966991,11.9982143 C23.5667568,23.1281566 23.5667568,41.1733585 34.6966991,52.3033009 Z" id="Combined-Shape" fill="#FF7C00"></path>
                <path d="M40,47 C48.2010101,55.2010101 61.4974747,55.2010101 69.6984848,47 C77.8994949,38.7989899 77.8994949,25.5025253 69.6984848,17.3015152 C61.4974747,9.10050506 48.2010101,9.10050506 40,17.3015152 C31.7989899,25.5025253 31.7989899,38.7989899 40,47 Z M37.7726136,49.2273864 C28.341452,39.7962247 28.341452,24.5052905 37.7726136,15.0741288 C47.2037753,5.64296718 62.4947095,5.64296718 71.9258712,15.0741288 C81.3570328,24.5052905 81.3570328,39.7962247 71.9258712,49.2273864 C62.4947095,58.658548 47.2037753,58.658548 37.7726136,49.2273864 Z M65.8093975,19.7763889 C59.756271,13.7232624 49.9422138,13.7232624 43.8890873,19.7763889 C43.3033009,20.3621754 43.3033009,21.3119228 43.8890873,21.8977093 C44.4748737,22.4834957 45.4246212,22.4834957 46.0104076,21.8977093 C50.8919613,17.0161556 58.8065235,17.0161556 63.6880772,21.8977093 C64.2738636,22.4834957 65.2236111,22.4834957 65.8093975,21.8977093 C66.395184,21.3119228 66.395184,20.3621754 65.8093975,19.7763889 Z" id="Combined-Shape" fill="#D8D9D8" fill-rule="nonzero"></path>
            </g>
        </g>
    </g>
</svg>