<svg id="SvgjsSvg1000" xmlns="http://www.w3.org/2000/svg" version="1.1" xmlns:xlink="http://www.w3.org/1999/xlink" xmlns:svgjs="http://svgjs.com/svgjs" width="106.25" height="79.13119797175568" viewBox="0 0 106.25 79.13119797175568"><title>Group 25 Copy 2</title><desc>Created with Avocode.</desc><defs id="SvgjsDefs1001"><clipPath id="SvgjsClipPath1010"><path id="SvgjsPath1009" d="M303 3599L303 3580L322 3580L322 3599ZM312.5 3595C315.53757 3595 318 3592.53757 318 3589.5C318 3586.46243 315.53757 3584 312.5 3584C309.46243 3584 307 3586.46243 307 3589.5C307 3592.53757 309.46243 3595 312.5 3595Z " fill="#ffffff"></path></clipPath><clipPath id="SvgjsClipPath1014"><path id="SvgjsPath1013" d="M328.8688 3585.1312L328.8688 3565.8687999999997L348.13120000000004 3565.8687999999997L348.13120000000004 3585.1312ZM338.5 3581C341.53757 3581 344 3578.53757 344 3575.5C344 3572.46243 341.53757 3570 338.5 3570C335.46243 3570 333 3572.46243 333 3575.5C333 3578.53757 335.46243 3581 338.5 3581Z " fill="#ffffff"></path></clipPath><clipPath id="SvgjsClipPath1018"><path id="SvgjsPath1017" d="M359 3609L359 3592L376 3592L376 3609ZM367.5 3606C370.53757 3606 373 3603.53757 373 3600.5C373 3597.46243 370.53757 3595 367.5 3595C364.46243 3595 362 3597.46243 362 3600.5C362 3603.53757 364.46243 3606 367.5 3606Z " fill="#ffffff"></path></clipPath><clipPath id="SvgjsClipPath1021"><path id="SvgjsPath1020" d="M339 3637L339 3579L397 3579L397 3637ZM368 3633C381.80712 3633 393 3621.80712 393 3608C393 3594.19288 381.80712 3583 368 3583C354.19288 3583 343 3594.19288 343 3608C343 3621.80712 354.19288 3633 368 3633Z " fill="#ffffff"></path></clipPath></defs><path id="SvgjsPath1007" d="M301 3639.58C301.15 3633.67 302.62 3616.91 302.89 3614.63C303.38 3610.37 306.83 3604 314.45 3604C320.57 3604 323.78999999999996 3608.49 324.15 3613.46C324.5 3618.43 325.56 3638.79 325.56 3639.58 " fill-opacity="0" fill="#ffffff" stroke-dasharray="0" stroke-linejoin="round" stroke-linecap="round" stroke-opacity="1" stroke="#d3d3d3" stroke-miterlimit="50" stroke-width="4.5" transform="matrix(1,0,0,1,-298.75,-3565.8688020282443)"></path><path id="SvgjsPath1008" d="M307 3589.5C307 3586.46243 309.46243 3584 312.5 3584C315.53757 3584 318 3586.46243 318 3589.5C318 3592.53757 315.53757 3595 312.5 3595C309.46243 3595 307 3592.53757 307 3589.5Z " fill-opacity="0" fill="#ffffff" stroke-dasharray="0" stroke-linejoin="miter" stroke-linecap="butt" stroke-opacity="1" stroke="#d3d3d3" stroke-miterlimit="50" stroke-width="8" clip-path="url(&quot;#SvgjsClipPath1010&quot;)" transform="matrix(1,0,0,1,-298.75,-3565.8688020282443)"></path><path id="SvgjsPath1011" d="M325 3624.58C325.15 3618.67 326.62 3601.91 326.89 3599.63C327.38 3595.37 330.83 3589 338.45 3589 " fill-opacity="0" fill="#ffffff" stroke-dasharray="0" stroke-linejoin="round" stroke-linecap="round" stroke-opacity="1" stroke="#d3d3d3" stroke-miterlimit="50" stroke-width="4.5" transform="matrix(1,0,0,1,-298.75,-3565.8688020282443)"></path><path id="SvgjsPath1012" d="M333 3575.5C333 3572.46243 335.46243 3570 338.5 3570C341.53757 3570 344 3572.46243 344 3575.5C344 3578.53757 341.53757 3581 338.5 3581C335.46243 3581 333 3578.53757 333 3575.5Z " fill-opacity="0" fill="#ffffff" stroke-dasharray="0" stroke-linejoin="miter" stroke-linecap="butt" stroke-opacity="1" stroke="#d3d3d3" stroke-miterlimit="50" stroke-width="8.262395943510688" clip-path="url(&quot;#SvgjsClipPath1014&quot;)" transform="matrix(1,0,0,1,-298.75,-3565.8688020282443)"></path><path id="SvgjsPath1015" d="M356 3631.43C356.26 3628.3999999999996 356.47 3626.06 356.56 3625.29C357.06 3620.8 360.23 3614 368.05 3614C374.33 3614 378.07 3620.73 378.53000000000003 3624.7C378.73 3626.3999999999996 378.68 3629.1899999999996 378.89000000000004 3633.06 " fill-opacity="0" fill="#ffffff" stroke-dasharray="0" stroke-linejoin="round" stroke-linecap="round" stroke-opacity="1" stroke="#d3d3d3" stroke-miterlimit="50" stroke-width="4" transform="matrix(1,0,0,1,-298.75,-3565.8688020282443)"></path><path id="SvgjsPath1016" d="M362 3600.5C362 3597.46243 364.46243 3595 367.5 3595C370.53757 3595 373 3597.46243 373 3600.5C373 3603.53757 370.53757 3606 367.5 3606C364.46243 3606 362 3603.53757 362 3600.5Z " fill-opacity="0" fill="#ffffff" stroke-dasharray="0" stroke-linejoin="miter" stroke-linecap="butt" stroke-opacity="1" stroke="#f27023" stroke-miterlimit="50" stroke-width="6" clip-path="url(&quot;#SvgjsClipPath1018&quot;)" transform="matrix(1,0,0,1,-298.75,-3565.8688020282443)"></path><path id="SvgjsPath1019" d="M343 3608C343 3594.19288 354.19288 3583 368 3583C381.80712 3583 393 3594.19288 393 3608C393 3621.80712 381.80712 3633 368 3633C354.19288 3633 343 3621.80712 343 3608Z " fill-opacity="0" fill="#ffffff" stroke-dasharray="0" stroke-linejoin="miter" stroke-linecap="butt" stroke-opacity="1" stroke="#f27023" stroke-miterlimit="50" stroke-width="8" clip-path="url(&quot;#SvgjsClipPath1021&quot;)" transform="matrix(1,0,0,1,-298.75,-3565.8688020282443)"></path><path id="SvgjsPath1022" d="M393 3633L402.58 3642.53 " fill-opacity="0" fill="#ffffff" stroke-dasharray="0" stroke-linejoin="miter" stroke-linecap="round" stroke-opacity="1" stroke="#f27023" stroke-miterlimit="50" stroke-width="4" transform="matrix(1,0,0,1,-298.75,-3565.8688020282443)"></path></svg>