<?xml version="1.0" encoding="UTF-8"?>
<svg width="158px" height="85px" viewBox="0 0 158 85" version="1.1" xmlns="http://www.w3.org/2000/svg" xmlns:xlink="http://www.w3.org/1999/xlink">
    <!-- Generator: sketchtool 46.2 (44496) - http://www.bohemiancoding.com/sketch -->
    <title>5918152A-7F31-4896-A03D-292CC54C396C</title>
    <desc>Created with sketchtool.</desc>
    <defs></defs>
    <g id="design" stroke="none" stroke-width="1" fill="none" fill-rule="evenodd">
        <g id="HOW-IT-WORKS" transform="translate(-732.000000, -835.000000)">
            <g id="Group-3" transform="translate(811.000000, 877.500000) scale(-1, 1) translate(-811.000000, -877.500000) translate(732.000000, 835.000000)">
                <path d="M33,0 L124.5,1.77635684e-15 C127.537566,1.33226763e-15 130,2.46243388 130,5.5 L130,79.5 C130,82.5375661 127.537566,85 124.5,85 L33,85 C29.9624339,85 27.5,82.5375661 27.5,79.5 L27.5,5.5 C27.5,2.46243388 29.9624339,6.66133815e-16 33,0 Z M33,3 C31.6192881,3 30.5,4.11928813 30.5,5.5 L30.5,79.5 C30.5,80.8807119 31.6192881,82 33,82 L124.5,82 C125.880712,82 127,80.8807119 127,79.5 L127,5.5 C127,4.11928813 125.880712,3 124.5,3 L33,3 Z M12.5,62 L3.5,62 C3.22385763,62 3,61.7761424 3,61.5 L3,17.5 C3,17.2238576 3.22385763,17 3.5,17 L12.5,17 L12.5,14 L3.5,14 C1.56700338,14 2.62012634e-14,15.5670034 0,17.5 L0,61.5 C2.22044605e-16,63.4329966 1.56700338,65 3.5,65 L12.5,65 L12.5,62 Z M27.5,72 L16.5,72 C15.6715729,72 15,71.3284271 15,70.5 L15,12.5 C15,11.6715729 15.6715729,11 16.5,11 L27.5,11 L27.5,8 L16.5,8 C14.0147186,8 12,10.0147186 12,12.5 L12,70.5 C12,72.9852814 14.0147186,75 16.5,75 L27.5,75 L27.5,72 Z M145,62 L154,62 C154.276142,62 154.5,61.7761424 154.5,61.5 L154.5,17.5 C154.5,17.2238576 154.276142,17 154,17 L145,17 L145,14 L154,14 C155.932997,14 157.5,15.5670034 157.5,17.5 L157.5,61.5 C157.5,63.4329966 155.932997,65 154,65 L145,65 L145,62 Z M130,72 L141,72 C141.828427,72 142.5,71.3284271 142.5,70.5 L142.5,12.5 C142.5,11.6715729 141.828427,11 141,11 L130,11 L130,8 L141,8 C143.485281,8 145.5,10.0147186 145.5,12.5 L145.5,70.5 C145.5,72.9852814 143.485281,75 141,75 L130,75 L130,72 Z" id="Combined-Shape" fill="#D8D9D8" fill-rule="nonzero"></path>
                <path d="M57.4102564,51 C48.2966683,51 40.9102564,43.6118134 40.9102564,34.5 C40.9102564,25.3881866 48.2966683,18 57.4102564,18 C66.5238445,18 73.9102564,25.3881866 73.9102564,34.5 C73.9102564,43.6118134 66.5238445,51 57.4102564,51 Z M57.5,48 C64.9549552,48 71,41.9567279 71,34.5 C71,27.0432721 64.9549552,21 57.5,21 C50.0450448,21 44,27.0432721 44,34.5 C44,41.9567279 50.0450448,48 57.5,48 Z" id="Oval-3-Copy" fill="#FF7900" fill-rule="nonzero"></path>
                <path d="M47.8861141,43.9775132 C49.8427751,40.4613072 53.5898218,38.0833333 57.8908008,38.0833333 C61.9796561,38.0833333 65.5678713,40.2325288 67.5930639,43.4657116 C65.1202164,46.2474786 61.5147699,48 57.5,48 C53.7373947,48 50.334309,46.4607139 47.8861141,43.9775132 Z M57.3757759,34.4583333 C55.0462672,34.4583333 53.1578272,32.5648709 53.1578272,30.2291667 C53.1578272,27.8934624 55.0462672,26 57.3757759,26 C59.7052847,26 61.5937246,27.8934624 61.5937246,30.2291667 C61.5937246,32.5648709 59.7052847,34.4583333 57.3757759,34.4583333 Z" id="Combined-Shape" fill="#FF7C00"></path>
                <polygon id="Star" fill="#F27023" points="48 68 44.4732885 69.854102 45.1468305 65.927051 42.2936609 63.145898 46.2366442 62.572949 48 59 49.7633558 62.572949 53.7063391 63.145898 50.8531695 65.927051 51.5267115 69.854102"></polygon>
                <polygon id="Star-Copy" fill="#F27023" points="63 68 59.4732885 69.854102 60.1468305 65.927051 57.2936609 63.145898 61.2366442 62.572949 63 59 64.7633558 62.572949 68.7063391 63.145898 65.8531695 65.927051 66.5267115 69.854102"></polygon>
                <polygon id="Star-Copy-2" fill="#F27023" points="78 68 74.4732885 69.854102 75.1468305 65.927051 72.2936609 63.145898 76.2366442 62.572949 78 59 79.7633558 62.572949 83.7063391 63.145898 80.8531695 65.927051 81.5267115 69.854102"></polygon>
                <polygon id="Star-Copy-3" fill="#F27023" points="94 68 90.4732885 69.854102 91.1468305 65.927051 88.2936609 63.145898 92.2366442 62.572949 94 59 95.7633558 62.572949 99.7063391 63.145898 96.8531695 65.927051 97.5267115 69.854102"></polygon>
                <polygon id="Star-Copy-4" fill="#F27023" points="109 68 105.473288 69.854102 106.14683 65.927051 103.293661 63.145898 107.236644 62.572949 109 59 110.763356 62.572949 114.706339 63.145898 111.85317 65.927051 112.526712 69.854102"></polygon>
                <path d="M82,25.5416879 L95.6923077,25.5416879 L95.6923077,29.5414696 L82,29.5414696 L82,25.5416879 Z M82,33.7916879 L113.769231,33.7916879 L113.769231,37.7914696 L82,37.7914696 L82,33.7916879 Z M82,43.0417099 L107.74359,43.0417099 L107.74359,47.0414916 L82,47.0414916 L82,43.0417099 Z" id="Combined-Shape" fill="#D8D9D8"></path>
            </g>
        </g>
    </g>
</svg>